<?xml version="1.0" encoding="UTF-8" standalone="no"?>
<svg
   width="15.698"
   height="9.17"
   viewBox="0 0 15.698 9.17"
   version="1.1"
   id="svg15137"
   sodipodi:docname="angle-down-select-blue.svg"
   inkscape:version="1.1 (c68e22c387, 2021-05-23)"
   xmlns:inkscape="http://www.inkscape.org/namespaces/inkscape"
   xmlns:sodipodi="http://sodipodi.sourceforge.net/DTD/sodipodi-0.dtd"
   xmlns="http://www.w3.org/2000/svg"
   xmlns:svg="http://www.w3.org/2000/svg">
  <defs
     id="defs15141" />
  <sodipodi:namedview
     id="namedview15139"
     pagecolor="#ffffff"
     bordercolor="#666666"
     borderopacity="1.0"
     inkscape:pageshadow="2"
     inkscape:pageopacity="0.0"
     inkscape:pagecheckerboard="0"
     showgrid="false"
     inkscape:zoom="8.9183336"
     inkscape:cx="20.519528"
     inkscape:cy="-4.31695"
     inkscape:window-width="1920"
     inkscape:window-height="1017"
     inkscape:window-x="-8"
     inkscape:window-y="-8"
     inkscape:window-maximized="1"
     inkscape:current-layer="down-arrow" />
  <g
     id="down-arrow"
     transform="translate(0 -127.244)">
    <g
       id="_x31_0_34_"
       transform="translate(0 127.244)"
       style="fill:#aa8800;fill-opacity:1">
      <g
         id="Group_20"
         data-name="Group 20"
         style="fill:#aa8800;fill-opacity:1">
        <path
           id="Path_24"
           data-name="Path 24"
           d="M15.505,127.438a.655.655,0,0,0-.929,0l-6.727,7.382-6.728-7.382a.655.655,0,0,0-.929,0,.663.663,0,0,0,0,.934l7.159,7.855a.648.648,0,0,0,.5.187.647.647,0,0,0,.5-.187l7.16-7.856A.662.662,0,0,0,15.505,127.438Z"
           transform="translate(0 -127.244)"
           fill="#eaa4a4"
           style="fill:#add6d2;fill-opacity:1" />
      </g>
    </g>
  </g>
</svg>
